Coordinates
version=1
nRows=22
nColumns=24
inDegrees=yes

Units are S.I. units (second, meters, Newtons, ...)
Angles are in degrees.

endheader
time	pelvis_tilt	pelvis_list	pelvis_rotation	pelvis_tx	pelvis_ty	pelvis_tz	hip_flexion_r	hip_adduction_r	hip_rotation_r	knee_angle_r	ankle_angle_r	subtalar_angle_r	mtp_angle_r	hip_flexion_l	hip_adduction_l	hip_rotation_l	knee_angle_l	ankle_angle_l	subtalar_angle_l	mtp_angle_l	lumbar_extension	lumbar_bending	lumbar_rotation
      1.79000000	     60.67090959	    -16.61908379	      2.99276146	      0.52653267	      0.95419451	     -0.23339909	      6.78208604	     -8.90601686	    -18.17592016	    -56.64076731	    -18.38950356	      0.00000000	      0.00000000	     26.93179407	    -13.63398474	     12.31712159	    -12.89011609	    -35.14262724	      0.00000000	      0.00000000	      0.00000000	      0.00000000	      0.00000000
      1.80000000	     60.65965344	    -16.61775424	      2.98891694	      0.52655725	      0.95418728	     -0.23338838	      6.79141996	     -8.91175351	    -18.16724287	    -56.63349033	    -18.38592167	      0.00000000	      0.00000000	     26.94964121	    -13.63226720	     12.34416425	    -12.87619318	    -35.14337264	      0.00000000	      0.00000000	      0.00000000	      0.00000000	      0.00000000
      1.81000000	     60.64911900	    -16.61657270	      2.98680171	      0.52656770	      0.95417294	     -0.23340224	      6.80125043	     -8.91801344	    -18.16047378	    -56.62907592	    -18.38394125	      0.00000000	      0.00000000	     26.96873027	    -13.62819297	     12.36624979	    -12.86253935	    -35.14037924	      0.00000000	      0.00000000	      0.00000000	      0.00000000	      0.00000000
      1.82000000	     60.63944048	    -16.61418124	      2.98575168	      0.52656861	      0.95415811	     -0.23342273	      6.81182708	     -8.92442067	    -18.15571473	    -56.62697478	    -18.38356572	      0.00000000	      0.00000000	     26.98859483	    -13.62301137	     12.38280410	    -12.84952863	    -35.13516085	      0.00000000	      0.00000000	      0.00000000	      0.00000000	      0.00000000
      1.83000000	     60.63261133	    -16.61039799	      2.98539660	      0.52656799	      0.95414839	     -0.23342326	      6.81987228	     -8.93078005	    -18.15244353	    -56.62536541	    -18.38473755	      0.00000000	      0.00000000	     27.00634544	    -13.61833738	     12.39526500	    -12.83712089	    -35.12790870	      0.00000000	      0.00000000	      0.00000000	      0.00000000	      0.00000000
      1.84000000	     60.63236118	    -16.60621486	      2.98617250	      0.52656330	      0.95414815	     -0.23341037	      6.81954013	     -8.93627118	    -18.15002833	    -56.62211792	    -18.38720916	      0.00000000	      0.00000000	     27.01718806	    -13.61547125	     12.40579750	    -12.82534689	    -35.11761891	      0.00000000	      0.00000000	      0.00000000	      0.00000000	      0.00000000
      1.85000000	     60.64373810	    -16.60343271	      2.98967534	      0.52654333	      0.95416168	     -0.23340876	      6.80425316	     -8.93929750	    -18.14812185	    -56.61576200	    -18.39032755	      0.00000000	      0.00000000	     27.01562670	    -13.61540202	     12.41620979	    -12.81470857	    -35.10264953	      0.00000000	      0.00000000	      0.00000000	      0.00000000	      0.00000000
      1.86000000	     60.67200647	    -16.60405972	      2.99845763	      0.52650023	      0.95418639	     -0.23342360	      6.76866415	     -8.93816266	    -18.14670917	    -56.60617061	    -18.39293453	      0.00000000	      0.00000000	     26.99725274	    -13.61930575	     12.42735960	    -12.80621554	    -35.08154103	      0.00000000	      0.00000000	      0.00000000	      0.00000000	      0.00000000
      1.87000000	     60.72095448	    -16.60959048	      3.01477628	      0.52644262	      0.95420882	     -0.23344100	      6.71037505	     -8.93158660	    -18.14606964	    -56.59480302	    -18.39351690	      0.00000000	      0.00000000	     26.96066108	    -13.62833637	     12.43900493	    -12.80089094	    -35.05378548	      0.00000000	      0.00000000	      0.00000000	      0.00000000	      0.00000000
      1.88000000	     60.79076128	    -16.62039118	      3.03903878	      0.52639311	      0.95421650	     -0.23345249	      6.63129831	     -8.91887171	    -18.14661676	    -56.58423190	    -18.39058120	      0.00000000	      0.00000000	     26.90866385	    -13.64264618	     12.45001478	    -12.79907065	    -35.02031954	      0.00000000	      0.00000000	      0.00000000	      0.00000000	      0.00000000
      1.89000000	     60.87594998	    -16.63546058	      3.06919647	      0.52636110	      0.95421137	     -0.23345845	      6.53836045	     -8.90033972	    -18.14842968	    -56.57691632	    -18.38310129	      0.00000000	      0.00000000	     26.84816941	    -13.66071355	     12.45889204	    -12.80003364	    -34.98368032	      0.00000000	      0.00000000	      0.00000000	      0.00000000	      0.00000000
      1.90000000	     60.96499014	    -16.65260356	      3.10119143	      0.52632984	      0.95420378	     -0.23345909	      6.44303364	     -8.87789286	    -18.15080452	    -56.57390265	    -18.37089019	      0.00000000	      0.00000000	     26.78889498	    -13.67950629	     12.46444854	    -12.80210160	    -34.94780601	      0.00000000	      0.00000000	      0.00000000	      0.00000000	      0.00000000
      1.91000000	     61.04296711	    -16.66882198	      3.12991947	      0.52630614	      0.95419036	     -0.23344832	      6.35954063	     -8.85497819	    -18.15231896	    -56.57430253	    -18.35479101	      0.00000000	      0.00000000	     26.74156707	    -13.69530662	     12.46636264	    -12.80300920	    -34.91746574	      0.00000000	      0.00000000	      0.00000000	      0.00000000	      0.00000000
      1.92000000	     61.09586618	    -16.68104638	      3.15049067	      0.52631589	      0.95416712	     -0.23342344	      6.30187564	     -8.83596952	    -18.15130172	    -56.57583362	    -18.33661833	      0.00000000	      0.00000000	     26.71612991	    -13.70473839	     12.46539194	    -12.80034609	    -34.89734085	      0.00000000	      0.00000000	      0.00000000	      0.00000000	      0.00000000
      1.93000000	     61.11407508	    -16.68714202	      3.15955835	      0.52632427	      0.95415953	     -0.23340388	      6.28014559	     -8.82511036	    -18.14644613	    -56.57614894	    -18.31887724	      0.00000000	      0.00000000	     26.71977025	    -13.70561676	     12.46315285	    -12.79218082	    -34.89089906	      0.00000000	      0.00000000	      0.00000000	      0.00000000	      0.00000000
      1.94000000	     61.09497034	    -16.68653129	      3.15618625	      0.52628713	      0.95418409	     -0.23341121	      6.29748553	     -8.82502558	    -18.13746569	    -56.57413861	    -18.30434956	      0.00000000	      0.00000000	     26.75487883	    -13.69748745	     12.46160884	    -12.77774467	    -34.89934446	      0.00000000	      0.00000000	      0.00000000	      0.00000000	      0.00000000
      1.95000000	     61.04396084	    -16.68005590	      3.14196160	      0.52625675	      0.95420625	     -0.23343400	      6.34893178	     -8.83568990	    -18.12537912	    -56.57009548	    -18.29559159	      0.00000000	      0.00000000	     26.81811537	    -13.68166892	     12.46256026	    -12.75751511	    -34.92097513	      0.00000000	      0.00000000	      0.00000000	      0.00000000	      0.00000000
      1.96000000	     60.97243928	    -16.66923365	      3.12058304	      0.52630710	      0.95418986	     -0.23344540	      6.42264835	     -8.85462707	    -18.11215924	    -56.56452302	    -18.29437020	      0.00000000	      0.00000000	     26.90097554	    -13.66086038	     12.46724747	    -12.73269290	    -34.95118496	      0.00000000	      0.00000000	      0.00000000	      0.00000000	      0.00000000
      1.97000000	     60.89418744	    -16.65565172	      3.09707522	      0.52639414	      0.95415873	     -0.23344670	      6.50258363	     -8.87788454	    -18.10009075	    -56.55689392	    -18.30114793	      0.00000000	      0.00000000	     26.99129776	    -13.63849222	     12.47596228	    -12.70476779	    -34.98313827	      0.00000000	      0.00000000	      0.00000000	      0.00000000	      0.00000000
      1.98000000	     60.82354453	    -16.64132846	      3.07686274	      0.52642864	      0.95415514	     -0.23345542	      6.57146299	     -8.90104578	    -18.09122341	    -56.54581246	    -18.31476577	      0.00000000	      0.00000000	     27.07520817	    -13.61795957	     12.48769026	    -12.67561695	    -35.00902067	      0.00000000	      0.00000000	      0.00000000	      0.00000000	      0.00000000
      1.99000000	     60.77458858	    -16.62911709	      3.06520100	      0.52642033	      0.95417350	     -0.23347272	      6.61385641	     -8.91990277	    -18.08705202	    -56.53048372	    -18.33246990	      0.00000000	      0.00000000	     27.13926175	    -13.60213508	     12.50003265	    -12.64795747	    -35.02171167	      0.00000000	      0.00000000	      0.00000000	      0.00000000	      0.00000000
      2.00000000	     60.75886377	    -16.62219303	      3.06651533	      0.52641708	      0.95418809	     -0.23349390	      6.61903654	     -8.93080182	    -18.08843784	    -56.51215438	    -18.35046297	      0.00000000	      0.00000000	     27.17299498	    -13.59283122	     12.50959148	    -12.62533812	    -35.01656788	      0.00000000	      0.00000000	      0.00000000	      0.00000000	      0.00000000
